<svg width="806" height="469" viewBox="0 0 806 469" fill="none" xmlns="http://www.w3.org/2000/svg">
<rect x="1" y="10" width="805" height="459" rx="61" fill="#414361"/>
<rect width="805" height="459" rx="61" fill="#4D5174"/>
<rect x="388" width="417" height="459" rx="61" fill="#4D5165"/>
<rect x="252" width="181" height="459" fill="#4D5174"/>
<ellipse cx="636" cy="82" rx="46" ry="42" fill="#ED242A"/>
<ellipse cx="690" cy="82" rx="46" ry="42" fill="#FDC151"/>
<path d="M682 82.5C682 101.554 669.802 111.147 663.101 117C657.775 112.688 643 101.554 643 82.5C644.374 64.3259 655.885 50.9263 663.101 48C671.692 51.8504 681.485 65.8661 682 82.5Z" fill="#FA6D20"/>
<rect x="68.0002" y="145" width="109" height="70" rx="16" fill="#FBC955"/>
<rect x="90.0002" y="163" width="63" height="35" rx="17.5" fill="#E1A44A"/>
<rect x="99" y="170" width="45" height="22" rx="11" fill="#FBC955"/>
<path d="M70.2398 207.39C70.0885 206.921 70.0054 206.433 69.9931 205.941L69.9685 204.961C69.9143 202.799 71.5537 200.963 73.7343 200.741C74.036 200.711 74.3334 200.648 74.6214 200.554L75.9038 200.137C77.4558 199.632 78.9235 198.903 80.2596 197.976L80.343 197.918C81.7078 196.97 82.9263 195.833 83.9606 194.542L84.4892 193.881L86.4379 191.136L90.1011 184.849C90.1646 184.74 90.22 184.627 90.2668 184.51C91.0227 182.618 93.5968 182.291 94.8192 183.932L101.287 192.614C102.496 194.237 101.996 196.534 100.219 197.52L96.8785 199.375L95.2865 200.119C93.8463 200.793 92.479 201.612 91.2455 202.607C90.253 203.408 89.1484 204.337 88.6983 204.852C87.7978 205.881 87.4245 206.683 87.4245 206.683L86.1128 208.708C85.918 209.008 85.7581 209.33 85.636 209.666C84.948 211.56 83.1282 212.822 81.087 212.822L79.617 212.822L77.3483 212.822C75.5785 212.822 73.8661 212.198 72.5212 211.061L72.4172 210.973C71.9299 210.561 71.507 210.081 71.1625 209.547C70.8606 209.079 70.6215 208.575 70.4512 208.046L70.2398 207.39Z" fill="#E1A44A"/>
<path d="M176.244 153.022C176.371 153.5 176.428 153.992 176.415 154.485L176.388 155.463C176.328 157.625 174.595 159.375 172.405 159.485C172.102 159.5 171.802 159.547 171.509 159.626L170.206 159.978C168.63 160.403 167.126 161.054 165.744 161.912L165.656 161.966C164.243 162.842 162.967 163.916 161.866 165.153L161.303 165.785L159.212 168.426L155.223 174.517C155.154 174.623 155.093 174.734 155.04 174.848C154.185 176.699 151.596 176.891 150.46 175.187L144.464 166.194C143.341 164.51 143.959 162.24 145.786 161.346L149.22 159.665L150.853 159.001C152.324 158.403 153.73 157.656 155.011 156.728C156.046 155.978 157.2 155.105 157.677 154.614C158.631 153.632 159.046 152.851 159.046 152.851L160.463 150.896C160.673 150.605 160.85 150.293 160.989 149.963C161.776 148.107 163.66 146.939 165.699 147.044L167.166 147.119L169.435 147.235C171.2 147.326 172.876 148.037 174.159 149.241L174.259 149.334C174.724 149.77 175.121 150.272 175.437 150.823C175.714 151.306 175.926 151.821 176.068 152.357L176.244 153.022Z" fill="#E1A44A"/>
<path d="M172.102 211.921C171.664 212.16 171.194 212.337 170.705 212.447L169.74 212.663C167.599 213.142 165.45 211.921 164.8 209.856C164.71 209.57 164.589 209.294 164.439 209.034L163.771 207.877C162.962 206.476 161.95 205.202 160.765 204.094L160.689 204.024C159.478 202.891 158.107 201.938 156.619 201.193L155.858 200.812L152.745 199.47L145.771 197.168C145.65 197.129 145.526 197.097 145.401 197.075C143.37 196.717 142.541 194.291 143.935 192.782L151.281 184.831C152.659 183.339 155.044 183.367 156.375 184.89L158.878 187.753L159.937 189.151C160.887 190.407 161.968 191.563 163.196 192.556C164.19 193.359 165.335 194.246 165.936 194.58C167.137 195.248 168.008 195.451 168.008 195.451L170.28 196.319C170.618 196.448 170.969 196.54 171.327 196.591C173.347 196.883 174.96 198.393 175.363 200.367L175.653 201.787L176.101 203.984C176.449 205.692 176.165 207.469 175.301 208.992L175.233 209.111C174.92 209.663 174.525 210.167 174.062 210.605C173.657 210.989 173.203 211.319 172.711 211.588L172.102 211.921Z" fill="#E1A44A"/>
<path d="M74.1844 147.561C74.6289 147.334 75.1036 147.17 75.5944 147.075L76.567 146.885C78.7198 146.465 80.8333 147.746 81.4243 149.828C81.5062 150.116 81.6193 150.395 81.762 150.659L82.3971 151.834C83.1652 153.256 84.1416 154.558 85.2949 155.699L85.3679 155.771C86.5463 156.936 87.8895 157.927 89.356 158.713L90.1056 159.115L93.18 160.543L100.086 163.036C100.205 163.079 100.328 163.113 100.453 163.139C102.473 163.553 103.233 166 101.798 167.469L94.2254 175.218C92.8064 176.67 90.424 176.576 89.1368 175.017L86.7164 172.085L85.699 170.66C84.7833 169.378 83.7351 168.191 82.5338 167.163C81.5641 166.334 80.4457 165.416 79.8545 165.066C78.6731 164.365 77.8082 164.138 77.8082 164.138L75.5618 163.207C75.2282 163.069 74.8798 162.968 74.5231 162.907C72.5128 162.559 70.9425 161.005 70.5961 159.021L70.3469 157.594L69.9616 155.386C69.6617 153.669 69.9959 151.9 70.9036 150.4L70.9741 150.284C71.3031 149.741 71.7119 149.248 72.1871 148.823C72.6033 148.45 73.0668 148.132 73.5657 147.877L74.1844 147.561Z" fill="#E1A44A"/>
<rect x="83" y="40" width="19" height="56" fill="#D9D9D9"/>
<rect x="113" y="40" width="20" height="56" fill="#D9D9D9"/>
<rect x="144" y="40" width="19" height="56" fill="#D9D9D9"/>
<rect x="72" y="364" width="346" height="22" fill="#D9D9D9"/>
<rect x="501" y="363" width="61" height="23" fill="#D9D9D9"/>
<rect x="618" y="364" width="111" height="22" fill="#D9D9D9"/>
</svg>
