<svg width="876" height="594" viewBox="0 0 876 594" fill="none" xmlns="http://www.w3.org/2000/svg">
<rect x="2" y="134" width="805" height="459" rx="61" fill="#AA5D24"/>
<rect x="2" y="134" width="805" height="107" rx="53.5" fill="#7C3D1E"/>
<path d="M7.88356 195.792C5.19802 173.069 24.835 165.543 47.7162 165.543H754.879C786.403 165.543 815.456 198.496 793.946 221.542V221.542C779.946 236.542 20.4443 284.042 10.4443 215.042C9.3738 207.656 8.53248 201.283 7.88356 195.792Z" fill="#6A331A" fill-opacity="0.62"/>
<rect x="590" y="134" width="217" height="107" fill="#284866"/>
<rect x="47" y="170.476" width="542.656" height="206.255" rx="9" transform="rotate(-12.3945 47 170.476)" fill="#87C443"/>
<rect x="76.687" y="176.413" width="484.694" height="183.836" rx="20" transform="rotate(-12.3945 76.687 176.413)" fill="#3D8033"/>
<rect x="120.064" y="193.769" width="401.532" height="131.952" transform="rotate(-12.3945 120.064 193.769)" fill="#87C443"/>
<ellipse cx="141.752" cy="321.808" rx="32.3409" ry="27.8637" transform="rotate(-12.3945 141.752 321.808)" fill="#3D8033"/>
<ellipse cx="333.184" cy="214.484" rx="122.224" ry="65.9761" transform="rotate(-12.3945 333.184 214.484)" fill="#3D8033"/>
<ellipse cx="176.27" cy="246.016" rx="17.6405" ry="17.615" transform="rotate(-12.3945 176.27 246.016)" fill="#3D8033"/>
<ellipse cx="484.212" cy="179.654" rx="17.6405" ry="17.615" transform="rotate(-12.3945 484.212 179.654)" fill="#3D8033"/>
<ellipse cx="551.975" cy="231.657" rx="32.3409" ry="27.8637" transform="rotate(-12.3945 551.975 231.657)" fill="#3D8033"/>
<ellipse cx="524.478" cy="106.534" rx="32.3409" ry="27.8637" transform="rotate(-12.3945 524.478 106.534)" fill="#3D8033"/>
<ellipse cx="114.255" cy="196.686" rx="32.3409" ry="27.8637" transform="rotate(-12.3945 114.255 196.686)" fill="#3D8033"/>
<path d="M336.915 299.722L329.704 161.689L338.236 159.814L345.447 297.847L336.915 299.722ZM350.666 205.949C350.223 202.446 348.8 199.941 346.396 198.433C343.985 196.891 340.438 196.634 335.756 197.663C332.773 198.319 330.352 199.214 328.493 200.35C326.668 201.478 325.334 202.771 324.491 204.229C323.683 205.679 323.315 207.232 323.388 208.889C323.351 210.206 323.619 211.347 324.195 212.311C324.798 213.233 325.711 213.996 326.934 214.6C328.192 215.196 329.761 215.633 331.64 215.911C333.553 216.181 335.781 216.309 338.324 216.296L347.059 216.34C353.022 216.338 358.153 216.938 362.452 218.138C366.779 219.296 370.357 221.018 373.187 223.305C376.016 225.592 378.155 228.376 379.603 231.658C381.086 234.931 381.927 238.673 382.125 242.884C382.485 250.149 381.066 256.678 377.867 262.471C374.668 268.265 369.913 273.182 363.602 277.223C357.291 281.264 349.627 284.275 340.609 286.257C331.383 288.285 323.244 288.637 316.19 287.315C309.164 285.95 303.587 282.74 299.458 277.685C295.356 272.587 293.058 265.439 292.563 256.24L320.033 250.203C320.333 253.554 321.282 256.218 322.88 258.194C324.478 260.17 326.633 261.46 329.348 262.063C332.062 262.666 335.257 262.564 338.933 261.756C342.055 261.07 344.642 260.102 346.694 258.851C348.746 257.6 350.265 256.157 351.251 254.522C352.237 252.888 352.678 251.173 352.574 249.378C352.501 247.721 351.911 246.36 350.805 245.295C349.698 244.229 347.941 243.433 345.535 242.908C343.129 242.382 339.927 242.122 335.929 242.128L325.229 242.08C315.719 241.988 308.132 240.056 302.467 236.284C296.802 232.511 293.731 226.314 293.255 217.693C292.871 210.651 294.359 204.106 297.721 198.059C301.109 191.97 305.963 186.758 312.282 182.424C318.629 178.048 326.033 174.93 334.496 173.07C343.098 171.18 350.611 171.038 357.036 172.644C363.495 174.242 368.562 177.364 372.238 182.01C375.948 186.649 377.983 192.601 378.343 199.866L350.666 205.949Z" fill="#87C443"/>
<rect x="639" y="353" width="237" height="147" rx="73.5" fill="#F99608"/>
<ellipse cx="718" cy="427" rx="34" ry="35" fill="#FFD039"/>
<path d="M6 444.5C6 426.501 30.6691 421.426 37.7734 437.964L60.0251 489.763C64.2898 499.691 73.8598 506.302 84.6543 506.778L384.5 520L759.187 535.699C791.454 537.051 797.56 582.254 766.807 592.118V592.118C763.953 593.034 760.974 593.5 757.976 593.5H307.5H72.2496C27.9938 593.5 -5.57183 553.603 2 510V510L6 444.5V444.5Z" fill="#A1561F"/>
<rect x="7" y="239" width="621" height="267" fill="#AA5D24"/>
</svg>
